# xmcd
#
# Track frame offsets:
#	150
#	21789
#	50364
#	73639
#	94659
#	120643
#	141168
#	166181
#	183844
#	201738
#
# Disc length: 3004 seconds
#
# Revision: 0
# Processed by: cddbd v1.5.2PL0 Copyright (c) Steve Scherf et al.
# Submitted via: EZCDAudioConverter 8.0.2.1
#
DISCID=890bba0a
DTITLE=Đan Trường, Bằng Kiều, Mỹ Lệ, Thu Phương - Mưa Tình Yêu
DYEAR=1999
DGENRE=World Pop
TTITLE0=Đan Trường - Mưa Tình Yêu
TTITLE1=Bằng Kiều - Phai nhạt
TTITLE2=Mỹ Lệ - Vầng trăng đêm trôi
TTITLE3=Đan Trường - Bước chân lẻ loi
TTITLE4=Bằng Kiều - Tình trầm
TTITLE5=Mỹ Lệ - Mưa chiều nhớ anh
TTITLE6=Đan Trường - Phượng hồng
TTITLE7=Thu Phương - Tâm hồn tôi xanh màu lá
TTITLE8=Bằng Kiều - Đổi thay
TTITLE9=Đan Trường - Tâm hồn xao động
EXTD=
EXTT0=
EXTT1=
EXTT2=
EXTT3=
EXTT4=
EXTT5=
EXTT6=
EXTT7=
EXTT8=
EXTT9=
PLAYORDER=
